<svg height="512pt" viewBox="0 0 512 512.00042" width="512pt" xmlns="http://www.w3.org/2000/svg"><path d="m392.480469 187.734375h85.332031v42.667969h-85.332031zm0 0" fill="#37474f"/><path d="m376.097656 251.050781c-71.625 52.109375-168.675781 52.109375-240.300781 0l-18.773437 28.585938c83.058593 59.507812 194.789062 59.507812 277.84375 0zm0 0" fill="#ad1457"/><path d="m497.175781 377.761719c1.632813 1.617187 2.546875 3.824219 2.53125 6.121093-.011719 2.300782-.953125 4.496094-2.609375 6.089844-10.570312 10.054688-21.773437 19.425782-33.535156 28.058594-4.523438 3.414062-9.214844 6.742188-13.996094 9.8125-12.21875 8.1875-24.960937 15.570312-38.144531 22.101562-5.03125 2.5625-10.152344 4.949219-15.359375 7.167969-13.425781 5.921875-27.222656 10.964844-41.300781 15.105469-5.460938 1.621094-10.921875 3.070312-16.46875 4.4375-15.867188 3.792969-31.976563 6.5-48.214844 8.105469h-68.265625c-16.234375-1.605469-32.34375-4.3125-48.210938-8.105469-5.546874-1.367188-11.011718-2.816406-16.472656-4.4375-14.078125-4.140625-27.871094-9.183594-41.300781-15.105469-5.203125-2.21875-10.324219-4.605469-15.359375-7.167969-13.179688-6.53125-25.921875-13.914062-38.144531-22.101562-4.777344-3.070312-9.472657-6.398438-13.992188-9.8125-11.765625-8.632812-22.964843-18.003906-33.539062-28.058594-1.660157-1.59375-2.601563-3.792968-2.617188-6.097656-.015625-2.300781.902344-4.511719 2.542969-6.128906l36.308594-36.308594c3.292968-3.277344 8.605468-3.316406 11.945312-.085938 43.585938 41.261719 99.261719 67.457032 158.839844 74.734376h68.265625c59.589844-7.277344 115.273437-33.476563 158.867187-74.753907 3.339844-3.226562 8.652344-3.1875 11.945313.085938zm0 0" fill="#ad1457"/><path d="m315.679688 68.265625c-.011719 18.863281-8.925782 36.609375-24.046876 47.882813-15.121093 11.273437-34.675781 14.75-52.753906 9.378906-5.558594-1.675782-10.847656-4.148438-15.699218-7.339844-11.824219-7.679688-20.511719-19.332031-24.492188-32.855469v-34.132812c5.761719-19.347657 20.917969-34.46875 40.277344-40.191407 5.507812-1.648437 11.230468-2.484374 16.980468-2.472656 15.84375 0 31.035157 6.292969 42.238282 17.492188 11.203125 11.203125 17.496094 26.398437 17.496094 42.238281zm0 0" fill="#ff9801"/><path d="m281.546875 68.265625c.042969 20.132813-10.105469 38.921875-26.964844 49.921875-4.851562 3.191406-10.140625 5.664062-15.703125 7.339844-5.558594-1.675782-10.847656-4.148438-15.699218-7.339844-11.824219-7.679688-20.511719-19.332031-24.492188-32.855469v-34.132812c5.761719-19.347657 20.917969-34.46875 40.277344-40.191407 25.285156 7.582032 42.597656 30.859376 42.582031 57.257813zm0 0" fill="#ffb301"/><path d="m227.785156 85.332031h-74.238281c-4.714844 0-8.535156-3.820312-8.535156-8.53125v-17.066406c0-4.714844 3.820312-8.535156 8.535156-8.535156h74.238281c1.6875 0 3.335938.5 4.738282 1.433593l12.800781 8.535157c2.371093 1.582031 3.796875 4.246093 3.796875 7.097656 0 2.855469-1.425782 5.519531-3.796875 7.101563l-12.800781 8.53125c-1.402344.9375-3.050782 1.4375-4.738282 1.433593zm0 0" fill="#f29c1f"/><path d="m290.078125 392.535156v102.398438c0 4.714844-3.820313 8.535156-8.53125 8.535156h-51.199219c-4.714844 0-8.535156-3.820312-8.535156-8.535156v-102.398438c-.023438-13.902344 8.429688-26.410156 21.332031-31.574218 4.046875-1.722657 8.40625-2.59375 12.800781-2.558594 18.851563 0 34.132813 15.28125 34.132813 34.132812zm0 0" fill="#f29c1f"/><path d="m264.480469 392.535156v102.398438c0 4.714844-3.820313 8.535156-8.535157 8.535156h-25.597656c-4.714844 0-8.535156-3.820312-8.535156-8.535156v-102.398438c-.023438-13.902344 8.429688-26.410156 21.332031-31.574218 12.90625 5.164062 21.359375 17.671874 21.335938 31.574218zm0 0" fill="#ffb301"/><path d="m409.949219 239.402344-138.804688 8.066406v-76.800781l138.804688 8.0625c4.554687.214843 8.136719 3.972656 8.128906 8.535156v43.636719c-.011719 4.550781-3.589844 8.285156-8.128906 8.5zm0 0" fill="#607d8b"/><path d="m477.8125 179.199219h25.601562v59.734375h-25.601562c-4.710938 0-8.53125-3.820313-8.53125-8.53125v-42.667969c0-4.714844 3.820312-8.535156 8.53125-8.535156zm0 0" fill="#37474f"/><path d="m247.414062 162.132812h17.066407c4.710937 0 8.53125 3.820313 8.53125 8.535157v76.800781c0 4.710938-3.820313 8.53125-8.53125 8.53125h-17.066407c-4.714843 0-8.535156-3.820312-8.535156-8.53125v-76.800781c0-4.714844 3.820313-8.535157 8.535156-8.535157zm0 0" fill="#cfd8dc"/><path d="m2.761719 390.179688c14.644531 14.601562 30.519531 27.910156 47.453125 39.78125.070312 0 .09375.109374.164062.164062.066406.050781.222656.09375.324219.160156 16.933594 11.816406 34.851563 22.15625 53.554687 30.90625.085938.042969.136719.121094.222657.164063.085937.042969.195312 0 .289062.058593 18.78125 8.753907 38.285157 15.863282 58.292969 21.25l.117188.058594c.082031-.003906.164062-.003906.25 0 16.363281 4.398438 33.023437 7.621094 49.851562 9.652344v2.558594c0 9.425781 7.640625 17.066406 17.066406 17.066406h51.199219c9.425781 0 17.066406-7.640625 17.066406-17.066406v-2.558594c16.824219-2.011719 33.484375-5.214844 49.851563-9.59375.082031-.003906.164062-.003906.246094 0l.121093-.058594c20.007813-5.386718 39.511719-12.492187 58.289063-21.25.09375 0 .199218 0 .292968-.058594.09375-.058593.136719-.117187.222657-.160156 18.703125-8.75 36.621093-19.09375 53.554687-30.910156.101563-.066406.21875-.09375.324219-.160156.101563-.070313.09375-.121094.160156-.164063 16.933594-11.867187 32.808594-25.175781 47.445313-39.78125.085937-.078125.195312-.101562.28125-.1875 1.613281-1.601562 2.519531-3.78125 2.519531-6.054687 0-2.273438-.90625-4.453125-2.519531-6.054688l-48.382813-48.382812c-1.546875-1.535156-3.625-2.414063-5.804687-2.449219-.074219 0-.144532-.042969-.21875-.042969-2.265625-.003906-4.441406.898438-6.042969 2.5-2.21875 2.21875-4.617187 4.214844-6.894531 6.355469l-40.25-61.234375-16.582032-25.230469 25.34375-1.488281c5.902344-.382812 11.183594-3.804688 13.945313-9.035156h38.601563c3.027343 5.261718 8.625 8.515625 14.695312 8.535156h25.601562c4.710938 0 8.53125-3.820312 8.53125-8.535156v-59.734375c0-4.710938-3.820312-8.53125-8.53125-8.53125h-25.601562c-6.070312.015625-11.667969 3.269531-14.695312 8.53125h-38.601563c-2.777344-5.222657-8.066406-8.625-13.972656-8.984375l-80.527344-4.734375-29.765625-45.28125c21.757812-18.558594 29.636719-48.710938 19.746094-75.542969s-35.453125-44.65625-64.050782-44.65625c-27.796874-.0976562-52.820312 16.828125-63.078124 42.667969h-39.320313c-9.425781 0-17.066406 7.640625-17.066406 17.066406v17.066406c0 9.425781 7.640625 17.066407 17.066406 17.066407h39.097656c4.117188 10.179687 10.644531 19.203124 19.023438 26.300781l-82.671875 125.773437-.101563.09375c-.042969.058594-.050781.136719-.09375.195313l-18.644531 28.371093-.0625.0625v.101563l-40.175781 61.089844c-2.285157-2.132813-4.683594-4.140625-6.902344-6.359375-3.332031-3.328125-8.734375-3.328125-12.066406 0l-48.46875 48.472656c-1.59375 1.59375-2.48437525 3.753906-2.480469 6.007812.00390625 2.253907.90625 4.410157 2.507812 5.996094.058594.101563.167969.128906.253907.207032zm173.117187 78.136718 6.59375-24.582031c1.222656-4.554687-1.480468-9.234375-6.03125-10.453125-4.550781-1.222656-9.234375 1.480469-10.453125 6.03125l-6.589843 24.570312c-13.582032-4.007812-26.90625-8.851562-39.890626-14.507812l10.742188-23.039062c1.992188-4.273438.140625-9.351563-4.128906-11.34375-4.273438-1.988282-9.351563-.140626-11.339844 4.132812l-10.726562 23.039062c-12.6875-6.335937-24.964844-13.449218-36.773438-21.300781l14.585938-20.804687c1.746093-2.496094 2.03125-5.738282.742187-8.5-1.289063-2.765625-3.957031-4.628906-6.996094-4.894532-3.035156-.265624-5.984375 1.109376-7.734375 3.609376l-14.582031 20.792968c-11.40625-8.414062-22.273437-17.53125-32.539063-27.304687l36.3125-36.285157c43.105469 40.664063 97.609376 67.183594 156.210938 76.007813v51.675781c-12.585938-1.574218-25.074219-3.859375-37.402344-6.84375zm-37.640625-205.371094c71.246094 47.632813 164.179688 47.632813 235.425781 0l9.386719 14.292969c-76.960937 51.335938-177.246093 51.335938-254.207031 0zm109.175781-127.027343v17.683593h-8.535156c-4.710937 0-8.53125 3.820313-8.53125 8.53125v93.867188c0 4.714844 3.820313 8.535156 8.53125 8.535156h8.535156v16.734375c-35.640624-1.476562-70.1875-12.746093-99.839843-32.574219l78.34375-119.183593c6.757812 3.316406 14.023437 5.484375 21.496093 6.40625zm17.066407 128.617187h8.53125c4.714843 0 8.535156-3.820312 8.535156-8.535156v-.484375l79.546875-4.6875c-28.9375 18.527344-62.28125 29.03125-96.613281 30.441406zm0-17.066406h-17.066407v-76.800781h17.066407zm-8.535157 119.464844c14.140626 0 25.601563 11.460937 25.601563 25.601562v68.265625h-51.199219v-68.265625c0-14.140625 11.460938-25.601562 25.597656-25.601562zm-25.597656 128v-17.066406h51.199219v17.066406zm68.265625-71.449219c58.597657-8.824219 113.101563-35.34375 156.210938-76.007813l36.308593 36.308594c-10.265624 9.773438-21.132812 18.894532-32.535156 27.308594l-14.558594-20.796875c-2.695312-3.867187-8.019531-4.820313-11.886718-2.125-3.871094 2.695313-4.820313 8.019531-2.125 11.886719l14.558594 20.804687c-11.800782 7.824219-24.074219 14.914063-36.746094 21.222657l-10.726563-23.039063c-1.992187-4.273437-7.070312-6.121094-11.339843-4.128906-4.273438 1.988281-6.121094 7.066406-4.132813 11.339843l10.746094 23.039063c-12.984375 5.65625-26.308594 10.503906-39.894531 14.507813l-6.585938-24.566407c-1.242188-4.554687-5.941406-7.238281-10.492188-5.996093-4.554687 1.242187-7.238281 5.9375-5.996093 10.492187l6.597656 24.601563c-12.332031 2.976562-24.816406 5.253906-37.402344 6.824218zm0-17.441406v-13.507813c-.027343-20.269531-14.28125-37.730468-34.132812-41.816406v-18.242188c45.632812-1.445312 89.953125-15.632812 127.941406-40.960937l36.691406 55.816406c-37.515625 30.8125-82.558593 51.078125-130.5 58.710938zm196.265625-218.308594v42.667969h-17.066406v-42.667969zm-34.132812 34.132813h-34.132813v-25.601563h34.132813zm-51.199219-34.132813v43.152344l.496094 8.535156-.503907-8.535156-128 7.527343v-58.691406l128 7.523438zm-128-25.113281v-.488282c0-4.710937-3.820313-8.53125-8.535156-8.53125h-8.53125v-17.683593c7.464843-.921875 14.71875-3.089844 21.46875-6.40625l22.820312 34.710937zm-128-102.886719h74.238281l12.800782 8.53125-12.800782 8.535156h-74.238281zm76.800781 34.132813c1.683594-.003907 3.332032-.5 4.734375-1.433594l25.601563-17.066406c2.371094-1.582032 3.796875-4.246094 3.796875-7.101563 0-2.851563-1.425781-5.515625-3.796875-7.097656l-25.601563-17.066407c-1.402343-.933593-3.050781-1.433593-4.734375-1.433593h-18.613281c9.046875-15.878907 25.9375-25.65625 44.210937-25.601563 22.628907.015625 42.5625 14.878906 49.03125 36.5625s-2.0625 45.039063-20.980468 57.449219c-17.101563 11.023437-39.066406 11.023437-56.167969 0-6.640625-4.386719-12.148437-10.285156-16.066406-17.210937zm-110.867187 197.613281c37.980469 25.339843 82.296875 39.542969 127.933593 40.996093v18.242188c-19.851562 4.085938-34.109374 21.546875-34.132812 41.816406v13.507813c-47.941406-7.648438-92.980469-27.917969-130.492188-58.734375zm0 0"/><path d="m249.886719 398.59375c3.367187 3.300781 8.753906 3.300781 12.117187 0 .753906-.832031 1.359375-1.785156 1.792969-2.816406.4375-1.027344.667969-2.128906.683594-3.242188-.019531-2.265625-.902344-4.433594-2.476563-6.058594-3.421875-3.160156-8.695312-3.160156-12.117187 0-1.570313 1.625-2.457031 3.792969-2.472657 6.058594.011719 1.113282.246094 2.214844.683594 3.242188.429688 1.03125 1.035156 1.984375 1.789063 2.816406zm0 0"/></svg>